<svg width="430" height="430" viewBox="0 0 430 430" fill="none" xmlns="http://www.w3.org/2000/svg">
<path d="M430 215C430 333.741 333.741 430 215 430C96.2588 430 0 333.741 0 215C0 96.2588 96.2588 0 215 0C333.741 0 430 96.2588 430 215Z" fill="white"/>
<path d="M312 213C312 282.5 252 287.5 252 345C252 389.578 252 370.5 214 370.5C176 370.5 175 389.867 175 345C175 286.5 116 289 116 213C116 158.876 159.876 115 214 115C268.124 115 312 158.876 312 213Z" fill="#ACACAC"/>
<path d="M288 213.861C288 267.661 244.5 283 244.5 315.042C244.5 347.085 242.276 341 213 341C183.724 341 182.454 346.585 182.454 315.042C182.454 283.5 137 272.693 137 213.861C137 171.964 170.803 138 212.5 138C254.197 138 288 171.964 288 213.861Z" fill="white"/>
<path d="M213.552 388.653L249.723 388.721C249.723 388.721 231.89 397.584 231.2 397.788C228.161 398.738 219.006 399.791 219.006 399.791C219.006 399.791 214.906 399.791 213.552 399.791C212.199 399.791 208.099 399.791 208.099 399.791C208.099 399.791 198.944 398.738 195.905 397.788C195.202 397.584 177.382 388.721 177.382 388.721L213.552 388.653Z" fill="#707070"/>
<path d="M171 367.344V358.821C171 353.252 172.234 348.736 173.773 348.736H253.186C254.699 348.736 255.919 353.15 255.959 358.617L255.999 367.072C256.065 379.534 253.305 389.755 249.895 389.721C249.895 389.721 227.745 392.026 213.506 392C199.264 391.974 177.117 389.585 177.117 389.585C173.747 389.585 171.013 379.636 171.013 367.344H171Z" fill="#ACACAC"/>
<path d="M181 368.529V361.874C181 357.526 181.958 354 183.153 354H244.815C245.989 354 246.937 357.447 246.968 361.715L246.999 368.316C247.051 378.046 244.908 386.026 242.26 386L185.75 385.894C183.133 385.894 181.01 378.126 181.01 368.529H181Z" fill="white"/>
<path d="M281.011 77.5109C283.011 74.0478 281.824 69.6196 278.361 67.6202C274.898 65.6208 270.47 66.8074 268.47 70.2704L255.62 92.5276C253.621 95.9906 254.807 100.419 258.27 102.418C261.733 104.418 266.162 103.231 268.161 99.768L281.011 77.5109Z" fill="#ACACAC"/>
<path d="M150.62 77.5109C148.621 74.0478 149.807 69.6196 153.27 67.6202C156.733 65.6208 161.162 66.8074 163.161 70.2704L176.011 92.5276C178.011 95.9906 176.824 100.419 173.361 102.418C169.898 104.418 165.47 103.231 163.47 99.768L150.62 77.5109Z" fill="#ACACAC"/>
<path d="M222 51C222 47.134 218.866 44 215 44C211.134 44 208 47.134 208 51V91C208 94.866 211.134 98 215 98C218.866 98 222 94.866 222 91V51Z" fill="#ACACAC"/>
<path fill-rule="evenodd" clip-rule="evenodd" d="M215.31 187.414C213.33 184.757 209.571 184.209 206.914 186.19C194.133 195.717 190.365 210.374 192.002 223.024C189.506 226.963 187.644 231.43 186.476 235.972C184.787 242.536 184.434 249.698 186.068 256.166C187.72 262.708 191.515 268.83 198.232 272.323C202.699 274.646 206.859 274.882 210.618 273.948C213.542 273.222 216.183 271.75 217.938 270.772C219.101 270.124 220.502 269.042 221.866 269.062C222.892 269.077 224.431 269.954 225 271C225.569 272.046 225.677 272.608 224.581 276.984C223.499 281.303 221.257 286.496 218.516 293.459C213.254 306.832 207.01 324.769 210.523 345.502L222.354 343.498C219.429 326.231 224.525 310.96 229.683 297.853C232.153 291.577 234.89 285.213 236.221 279.899C237.538 274.642 238.108 268.077 233.431 262.954C230.112 259.319 226.373 257.126 222.041 257.063C216.408 256.981 212.822 261.036 207.726 262.302C206.704 262.556 205.551 262.604 203.768 261.677C200.784 260.125 198.728 257.288 197.702 253.227C196.696 249.244 196.79 244.379 197.961 239.511C200.908 243.928 204.911 247.56 209.912 249.323C220.925 253.205 235.513 245.869 237.366 233.975C237.875 230.703 237.658 226.932 236.33 223.294C234.98 219.593 232.474 216.036 228.506 213.449C224.559 210.876 219.536 209.5 213.5 209.5C210.121 209.5 207.006 210.295 204.196 211.636C205.4 205.662 208.537 199.947 214.086 195.81C216.743 193.83 217.291 190.071 215.31 187.414ZM204.811 225.944C207.627 222.907 210.609 221.5 213.5 221.5C219.872 221.5 226.633 224.911 225.509 232.127C224.769 236.878 218.095 239.484 213.901 238.005C208.952 236.261 206.191 230.697 204.811 225.944Z" fill="#ACACAC"/>
</svg>
