<svg width="430" height="430" viewBox="0 0 430 430" fill="none" xmlns="http://www.w3.org/2000/svg">
<path d="M430 215C430 333.741 333.741 430 215 430C96.2588 430 0 333.741 0 215C0 96.2588 96.2588 0 215 0C333.741 0 430 96.2588 430 215Z" fill="white"/>
<path d="M314 213C314 282.5 254 287.5 254 345C254 389.578 254 370.5 216 370.5C178 370.5 177 389.867 177 345C177 286.5 118 289 118 213C118 158.876 161.876 115 216 115C270.124 115 314 158.876 314 213Z" fill="#E1E2C1"/>
<path d="M290 213.861C290 267.661 246.5 283 246.5 315.042C246.5 347.085 244.276 341 215 341C185.724 341 184.454 346.585 184.454 315.042C184.454 283.5 139 272.693 139 213.861C139 171.964 172.803 138 214.5 138C256.197 138 290 171.964 290 213.861Z" fill="#FFF363"/>
<path d="M215.552 388.653L251.723 388.721C251.723 388.721 233.89 397.584 233.2 397.788C230.161 398.738 221.006 399.791 221.006 399.791C221.006 399.791 216.906 399.791 215.552 399.791C214.199 399.791 210.099 399.791 210.099 399.791C210.099 399.791 200.944 398.738 197.905 397.788C197.202 397.584 179.382 388.721 179.382 388.721L215.552 388.653Z" fill="#707070"/>
<path d="M173 367.344V358.821C173 353.252 174.234 348.736 175.773 348.736H255.186C256.699 348.736 257.919 353.15 257.959 358.617L257.999 367.072C258.065 379.534 255.305 389.755 251.895 389.721C251.895 389.721 229.745 392.026 215.506 392C201.264 391.974 179.117 389.585 179.117 389.585C175.747 389.585 173.013 379.636 173.013 367.344H173Z" fill="#ACACAC"/>
<path d="M183 368.529V361.874C183 357.526 183.958 354 185.153 354H246.815C247.989 354 248.937 357.447 248.968 361.715L248.999 368.316C249.051 378.046 246.908 386.026 244.26 386L187.75 385.894C185.133 385.894 183.01 378.126 183.01 368.529H183Z" fill="white"/>
<path d="M251.481 58.2404C251.481 54.2417 248.239 51 244.24 51C240.242 51 237 54.2417 237 58.2404V83.9408C237 87.9396 240.242 91.1812 244.24 91.1812C248.239 91.1812 251.481 87.9396 251.481 83.9408V58.2404Z" fill="#E8D100"/>
<path d="M179 58.2404C179 54.2417 182.242 51 186.24 51C190.239 51 193.481 54.2417 193.481 58.2404V83.9408C193.481 87.9396 190.239 91.1812 186.24 91.1812C182.242 91.1812 179 87.9396 179 83.9408V58.2404Z" fill="#E8D100"/>
<path d="M222 40C222 36.134 218.866 33 215 33C211.134 33 208 36.134 208 40V80C208 83.866 211.134 87 215 87C218.866 87 222 83.866 222 80V40Z" fill="#E8D100"/>
<path fill-rule="evenodd" clip-rule="evenodd" d="M217.31 187.414C215.33 184.757 211.571 184.209 208.914 186.19C196.133 195.717 192.365 210.374 194.002 223.024C191.506 226.963 189.644 231.43 188.476 235.972C186.787 242.536 186.434 249.698 188.068 256.166C189.72 262.708 193.515 268.83 200.232 272.323C204.699 274.646 208.859 274.882 212.618 273.948C215.542 273.222 218.183 271.75 219.938 270.772C221.101 270.124 222.502 269.042 223.866 269.062C224.892 269.077 226.431 269.954 227 271C227.569 272.046 227.677 272.608 226.581 276.984C225.499 281.303 223.257 286.496 220.516 293.459C215.254 306.832 209.01 324.769 212.523 345.502L224.354 343.498C221.429 326.231 226.525 310.96 231.683 297.853C234.153 291.577 236.89 285.213 238.221 279.899C239.538 274.642 240.108 268.077 235.431 262.954C232.112 259.319 228.373 257.126 224.041 257.063C218.408 256.981 214.822 261.036 209.726 262.302C208.704 262.556 207.551 262.604 205.768 261.677C202.784 260.125 200.728 257.288 199.702 253.227C198.696 249.244 198.79 244.379 199.961 239.511C202.908 243.928 206.911 247.56 211.912 249.323C222.925 253.205 237.513 245.869 239.366 233.975C239.875 230.703 239.658 226.932 238.33 223.294C236.98 219.593 234.474 216.036 230.506 213.449C226.559 210.876 221.536 209.5 215.5 209.5C212.121 209.5 209.006 210.295 206.196 211.636C207.4 205.662 210.537 199.947 216.086 195.81C218.743 193.83 219.291 190.071 217.31 187.414ZM206.811 225.944C209.627 222.907 212.609 221.5 215.5 221.5C221.872 221.5 228.633 224.911 227.509 232.127C226.769 236.878 220.095 239.484 215.901 238.005C210.952 236.261 208.191 230.697 206.811 225.944Z" fill="#FFFCDB"/>
</svg>
